<mxfile host="65bd71144e" modified="2020-11-06T18:48:51.580Z" agent="5.0 (X11; Linux x86_64) AppleWebKit/537.36 (KHTML, like Gecko) Code/1.51.0 Chrome/83.0.4103.122 Electron/9.3.3 Safari/537.36" version="13.6.5" etag="R6bdrEXKIRmDMpuzf5Cz">
    <diagram id="QNF-ZM2gTCFKru1ivbbv" name="Page-1">
        <mxGraphModel dx="1058" dy="896" grid="1" gridSize="10" guides="1" tooltips="1" connect="1" arrows="1" fold="1" page="1" pageScale="1" pageWidth="850" pageHeight="1100" math="0" shadow="0">
            <root>
                <mxCell id="0"/>
                <mxCell id="1" parent="0"/>
                <mxCell id="2" value="" style="whiteSpace=wrap;html=1;aspect=fixed;" vertex="1" parent="1">
                    <mxGeometry x="200" y="240" width="460" height="460" as="geometry"/>
                </mxCell>
                <mxCell id="5" style="edgeStyle=orthogonalEdgeStyle;rounded=0;orthogonalLoop=1;jettySize=auto;html=1;exitX=0.5;exitY=0.5;exitDx=0;exitDy=0;exitPerimeter=0;" edge="1" parent="1" source="3" target="4">
                    <mxGeometry relative="1" as="geometry"/>
                </mxCell>
                <mxCell id="7" style="edgeStyle=orthogonalEdgeStyle;rounded=0;orthogonalLoop=1;jettySize=auto;html=1;exitX=0.5;exitY=0.5;exitDx=0;exitDy=0;exitPerimeter=0;entryX=0;entryY=0.5;entryDx=0;entryDy=0;" edge="1" parent="1" source="3" target="6">
                    <mxGeometry relative="1" as="geometry"/>
                </mxCell>
                <mxCell id="3" value="user" style="shape=umlActor;verticalLabelPosition=bottom;verticalAlign=top;html=1;" vertex="1" parent="1">
                    <mxGeometry x="50" y="360" width="30" height="60" as="geometry"/>
                </mxCell>
                <mxCell id="4" value="getAvaliableSeats" style="ellipse;whiteSpace=wrap;html=1;" vertex="1" parent="1">
                    <mxGeometry x="310" y="260" width="140" height="70" as="geometry"/>
                </mxCell>
                <mxCell id="6" value="buyATicket" style="ellipse;whiteSpace=wrap;html=1;" vertex="1" parent="1">
                    <mxGeometry x="315" y="410" width="140" height="70" as="geometry"/>
                </mxCell>
                <mxCell id="10" style="edgeStyle=orthogonalEdgeStyle;rounded=0;orthogonalLoop=1;jettySize=auto;html=1;exitX=0.5;exitY=0.5;exitDx=0;exitDy=0;exitPerimeter=0;" edge="1" parent="1" source="8" target="9">
                    <mxGeometry relative="1" as="geometry"/>
                </mxCell>
                <mxCell id="8" value="admin" style="shape=umlActor;verticalLabelPosition=bottom;verticalAlign=top;html=1;outlineConnect=0;" vertex="1" parent="1">
                    <mxGeometry x="50" y="550" width="30" height="60" as="geometry"/>
                </mxCell>
                <mxCell id="9" value="loadTripData" style="ellipse;whiteSpace=wrap;html=1;" vertex="1" parent="1">
                    <mxGeometry x="330" y="560" width="140" height="70" as="geometry"/>
                </mxCell>
                <mxCell id="11" value="Trip" style="shape=module;align=left;spacingLeft=20;align=center;verticalAlign=top;" vertex="1" parent="1">
                    <mxGeometry x="110" y="820" width="100" height="50" as="geometry"/>
                </mxCell>
                <mxCell id="12" value="Test" style="shape=module;align=left;spacingLeft=20;align=center;verticalAlign=top;" vertex="1" parent="1">
                    <mxGeometry x="590" y="820" width="100" height="50" as="geometry"/>
                </mxCell>
                <mxCell id="13" value="loader" style="shape=module;align=left;spacingLeft=20;align=center;verticalAlign=top;" vertex="1" parent="1">
                    <mxGeometry x="350" y="820" width="100" height="50" as="geometry"/>
                </mxCell>
                <mxCell id="14" value="UseCase" style="text;html=1;align=center;verticalAlign=middle;resizable=0;points=[];autosize=1;" vertex="1" parent="1">
                    <mxGeometry x="390" y="710" width="60" height="20" as="geometry"/>
                </mxCell>
                <mxCell id="15" value="Modules" style="text;html=1;align=center;verticalAlign=middle;resizable=0;points=[];autosize=1;" vertex="1" parent="1">
                    <mxGeometry x="370" y="1010" width="60" height="20" as="geometry"/>
                </mxCell>
                <mxCell id="16" value="User" style="shape=module;align=left;spacingLeft=20;align=center;verticalAlign=top;" vertex="1" parent="1">
                    <mxGeometry x="110" y="940" width="100" height="50" as="geometry"/>
                </mxCell>
            </root>
        </mxGraphModel>
    </diagram>
</mxfile>
